<svg xmlns="http://www.w3.org/2000/svg" xmlns:xlink="http://www.w3.org/1999/xlink" version="1.1" x="0px" y="0px" viewBox="0 0 100 100" enable-background="new 0 0 100 100" xml:space="preserve">
    <path d="M49.905,31.672c-4.677,0-8.47,3.793-8.47,8.47c0,3.894,2.632,7.166,6.211,8.156v40.122c0,1.248,1.012,2.259,2.259,2.259  c1.248,0,2.26-1.011,2.26-2.259V48.297c3.579-0.99,6.211-4.262,6.211-8.155C58.376,35.465,54.583,31.672,49.905,31.672z"/><path d="M36.085,25.756c-0.882-0.882-2.312-0.882-3.194,0c-7.932,7.932-7.932,20.839,0,28.771c0.44,0.441,1.02,0.661,1.598,0.661  c0.577,0,1.156-0.22,1.597-0.661c0.882-0.883,0.882-2.312,0-3.194c-6.171-6.171-6.171-16.212,0-22.383  C36.967,28.068,36.967,26.638,36.085,25.756z"/><path d="M28.34,21.2c0.882-0.882,0.882-2.312,0-3.194c-0.882-0.882-2.312-0.882-3.194,0c-12.089,12.089-11.899,31.949,0.424,44.272  c0.44,0.44,1.019,0.661,1.597,0.661s1.156-0.221,1.597-0.661c0.883-0.883,0.883-2.312,0-3.194  C18.202,48.522,18.012,31.527,28.34,21.2z"/><path d="M66.922,25.756c-0.882-0.882-2.312-0.882-3.193,0c-0.883,0.882-0.883,2.312,0,3.194c6.169,6.171,6.169,16.212,0,22.383  c-0.883,0.883-0.883,2.312,0,3.194c0.44,0.441,1.019,0.661,1.597,0.661s1.155-0.22,1.597-0.661  C74.854,46.596,74.854,33.688,66.922,25.756z"/><path d="M74.667,18.006c-0.882-0.882-2.312-0.882-3.193,0c-0.883,0.882-0.883,2.312,0,3.194  c10.325,10.328,10.136,27.323-0.424,37.884c-0.882,0.883-0.882,2.312,0,3.194c0.441,0.44,1.019,0.661,1.597,0.661  s1.156-0.221,1.597-0.661C86.564,49.955,86.754,30.095,74.667,18.006z"/><path d="M20.373,13.178c0.883-0.882,0.883-2.312,0-3.194c-0.881-0.882-2.312-0.882-3.193,0C0.713,26.451,0.977,53.508,17.769,70.3  c0.44,0.441,1.019,0.662,1.597,0.662s1.156-0.221,1.597-0.662c0.883-0.882,0.883-2.312,0-3.193  C5.932,52.075,5.668,27.883,20.373,13.178z"/><path d="M82.82,9.984c-0.882-0.882-2.312-0.882-3.193,0c-0.883,0.881-0.883,2.312,0,3.194c14.705,14.706,14.441,38.897-0.59,53.929  c-0.882,0.882-0.882,2.312,0,3.193c0.441,0.441,1.02,0.662,1.598,0.662c0.577,0,1.155-0.221,1.597-0.662  C99.023,53.508,99.288,26.451,82.82,9.984z"/>
</svg>