<?xml version="1.0" encoding="UTF-8" standalone="no"?>
<!-- Created with Inkscape (http://www.inkscape.org/) -->

<svg
   xmlns:dc="http://purl.org/dc/elements/1.1/"
   xmlns:cc="http://creativecommons.org/ns#"
   xmlns:rdf="http://www.w3.org/1999/02/22-rdf-syntax-ns#"
   xmlns:svg="http://www.w3.org/2000/svg"
   xmlns="http://www.w3.org/2000/svg"
   xmlns:sodipodi="http://sodipodi.sourceforge.net/DTD/sodipodi-0.dtd"
   xmlns:inkscape="http://www.inkscape.org/namespaces/inkscape"
   id="svg3336"
   version="1.1"
   inkscape:version="0.91 r13725"
   width="167.10455"
   height="73.135994"
   viewBox="0 0 167.10455 73.135994"
   sodipodi:docname="avs.svg">
  <metadata
     id="metadata3342">
    <rdf:RDF>
      <cc:Work
         rdf:about="">
        <dc:format>image/svg+xml</dc:format>
        <dc:type
           rdf:resource="http://purl.org/dc/dcmitype/StillImage" />
        <dc:title></dc:title>
      </cc:Work>
    </rdf:RDF>
  </metadata>
  <defs
     id="defs3340" />
  <sodipodi:namedview
     pagecolor="#ffffff"
     bordercolor="#666666"
     borderopacity="1"
     objecttolerance="10"
     gridtolerance="10"
     guidetolerance="10"
     inkscape:pageopacity="0"
     inkscape:pageshadow="2"
     inkscape:window-width="2560"
     inkscape:window-height="1377"
     id="namedview3338"
     showgrid="false"
     inkscape:zoom="11.421829"
     inkscape:cx="86.080934"
     inkscape:cy="36.228856"
     inkscape:window-x="2552"
     inkscape:window-y="-8"
     inkscape:window-maximized="1"
     inkscape:current-layer="svg3336"
     fit-margin-top="0"
     fit-margin-left="0"
     fit-margin-right="0"
     fit-margin-bottom="0" />
  <path
     style="fill:#000000"
     d="M 6.0881418,60.292732 0,47.449474 4.0615778,23.964607 8.1231548,0.479741 83.576852,0.23987 159.03054,0 l 4.037,23.744469 4.03701,23.744469 -6.09333,12.823527 -6.09333,12.823526 -71.370803,0 -71.370804,0 L 6.0881418,60.292732 Z M 26.058049,58.135991 c 2.529019,-15.307676 4.295277,-24.434067 4.658501,-24.070842 0.209744,0.209743 1.432685,6.449767 2.717648,13.866722 1.284963,7.416953 2.545011,14.434589 2.800106,15.594745 0.443198,2.015627 0.879676,2.109375 9.82095,2.109375 8.606809,0 9.357139,-0.144545 9.357139,-1.802569 0,-1.581409 -7.588882,-46.937427 -8.992394,-53.744306 l -0.531585,-2.578125 -15.39426,0 c -8.466844,0 -15.396781,0.316406 -15.399861,0.703125 -0.0031,0.386719 -1.468877,9.078018 -3.257328,19.313998 l -3.2517292,18.610873 4.6261022,9.807328 4.6261,9.807329 3.52948,-0.293202 3.529481,-0.293201 1.16165,-7.03125 z m 72.382784,2.578125 c 2.002727,-10.121732 8.534057,-49.327736 8.534057,-51.227944 0,-1.875796 -0.46781,-1.975181 -9.297317,-1.975181 l -9.297308,0 -0.929728,4.453125 c -0.51135,2.449219 -1.662085,9.09375 -2.557191,14.765625 -0.895106,5.671875 -1.938415,10.909295 -2.31847,11.638711 -0.412011,0.790746 -1.157156,-1.480377 -1.845535,-5.625 C 80.094353,28.920286 78.884365,21.784428 78.04048,16.885991 L 76.506143,7.979741 66.896768,7.712569 c -7.344455,-0.204199 -9.607084,0.01677 -9.599654,0.9375 0.01906,2.361578 9.297073,55.179609 9.850008,56.074276 0.32667,0.528563 6.815403,0.911646 15.441633,0.911646 l 14.878198,0 0.97388,-4.921875 z m 55.448467,-4.6875 c 2.54162,-5.285156 4.6051,-10.03125 4.58548,-10.546875 -0.0196,-0.515625 -4.83587,-4.945313 -10.70283,-9.84375 l -10.66719,-8.90625 8.84132,-0.268324 c 6.16089,-0.186976 8.84093,-0.613308 8.84003,-1.40625 -7.1e-4,-0.625859 -0.63294,-4.723864 -1.40497,-9.106676 -0.77203,-4.382813 -1.40426,-8.083953 -1.40497,-8.224757 -7e-4,-0.140804 -7.48956,-0.140804 -16.64191,0 l -16.64062,0.256007 -1.11311,5.625 c -0.61222,3.09375 -1.37616,7.527653 -1.69766,9.853117 l -0.58454,4.228117 11.07266,9.365633 11.07265,9.365633 -12.79889,0.260233 -12.79889,0.260234 -1.06419,6.302266 c -0.5853,3.466247 -1.30635,7.673361 -1.60231,9.349142 l -0.53814,3.046875 20.31347,0 20.31348,0 4.62113,-9.609375 z"
     id="path3346"
     inkscape:connector-curvature="0" />
</svg>
