<svg xmlns="http://www.w3.org/2000/svg" viewBox="0 0 60 60" x="0px" y="0px">
    <defs>
        <style>.cls-1{fill:none;stroke:#000;stroke-linecap:round;stroke-linejoin:round;stroke-width:2px;}</style>
    </defs>
    <title>075 - RCA Cable</title>
    <rect class="cls-1" x="1" y="17" width="16" height="23" rx="1" ry="1"/>
    <path class="cls-1" d="M3,40H15a0,0,0,0,1,0,0V51a1,1,0,0,1-1,1H4a1,1,0,0,1-1-1V40A0,0,0,0,1,3,40Z"/>
    <line class="cls-1" x1="3" y1="44" x2="6" y2="44"/>
    <line class="cls-1" x1="12" y1="44" x2="15" y2="44"/>
    <line class="cls-1" x1="3" y1="48" x2="6" y2="48"/>
    <line class="cls-1" x1="12" y1="48" x2="15" y2="48"/>
    <path class="cls-1" d="M6,52h6a0,0,0,0,1,0,0v6a1,1,0,0,1-1,1H7a1,1,0,0,1-1-1V52A0,0,0,0,1,6,52Z"/>
    <path class="cls-1"
          d="M11,3V13H7V3A2.00587,2.00587,0,0,1,9,1a1.95518,1.95518,0,0,1,1.41.59A1.95523,1.95523,0,0,1,11,3Z"/>
    <path class="cls-1" d="M15,14v3H3V14a1,1,0,0,1,1-1H14A1,1,0,0,1,15,14Z"/>
    <rect class="cls-1" x="22" y="17" width="16" height="23" rx="1" ry="1"/>
    <path class="cls-1" d="M24,40H36a0,0,0,0,1,0,0V51a1,1,0,0,1-1,1H25a1,1,0,0,1-1-1V40A0,0,0,0,1,24,40Z"/>
    <line class="cls-1" x1="24" y1="44" x2="27" y2="44"/>
    <line class="cls-1" x1="33" y1="44" x2="36" y2="44"/>
    <line class="cls-1" x1="24" y1="48" x2="27" y2="48"/>
    <line class="cls-1" x1="33" y1="48" x2="36" y2="48"/>
    <path class="cls-1" d="M27,52h6a0,0,0,0,1,0,0v6a1,1,0,0,1-1,1H28a1,1,0,0,1-1-1V52A0,0,0,0,1,27,52Z"/>
    <path class="cls-1"
          d="M32,3V13H28V3a2.00587,2.00587,0,0,1,2-2,1.95518,1.95518,0,0,1,1.41.59A1.95523,1.95523,0,0,1,32,3Z"/>
    <path class="cls-1" d="M36,14v3H24V14a1,1,0,0,1,1-1H35A1,1,0,0,1,36,14Z"/>
    <rect class="cls-1" x="43" y="17" width="16" height="23" rx="1" ry="1"/>
    <path class="cls-1" d="M45,40H57a0,0,0,0,1,0,0V51a1,1,0,0,1-1,1H46a1,1,0,0,1-1-1V40A0,0,0,0,1,45,40Z"/>
    <line class="cls-1" x1="45" y1="44" x2="48" y2="44"/>
    <line class="cls-1" x1="54" y1="44" x2="57" y2="44"/>
    <line class="cls-1" x1="45" y1="48" x2="48" y2="48"/>
    <line class="cls-1" x1="54" y1="48" x2="57" y2="48"/>
    <path class="cls-1" d="M48,52h6a0,0,0,0,1,0,0v6a1,1,0,0,1-1,1H49a1,1,0,0,1-1-1V52A0,0,0,0,1,48,52Z"/>
    <path class="cls-1"
          d="M53,3V13H49V3a2.00587,2.00587,0,0,1,2-2,1.95518,1.95518,0,0,1,1.41.59A1.95523,1.95523,0,0,1,53,3Z"/>
    <path class="cls-1" d="M57,14v3H45V14a1,1,0,0,1,1-1H56A1,1,0,0,1,57,14Z"/>
</svg>