<svg xmlns="http://www.w3.org/2000/svg" xmlns:xlink="http://www.w3.org/1999/xlink" viewBox="0 0 56 56" version="1.1"
     x="0px" y="0px">
    <title>075 - RCA Cable</title>
    <desc>Created with Sketch.</desc>
    <g stroke="none" stroke-width="1" fill="none" fill-rule="evenodd">
        <g fill="#000000" fill-rule="nonzero">
            <path d="M6,1 C6.00055123,0.447943738 6.44794374,0.00055122983 7,-9.80657053e-16 C7.2696392,-0.000630860847 7.52751458,0.110367043 7.7124,0.30664 C7.89879842,0.488876347 8.0026858,0.739333079 8,1 L8,10 L6,10 L6,1 Z M2,12 L4.99854,11.99976 L5,12 L9,12 L9.00342,11.99927 L12,11.999 L12,14 L2,14 L2,12 Z M9.00146,56 L5,56 L5,51 L9,51 L9.00146,56 Z M12.00031,41 L10,41 C9.44771525,41 9,41.4477153 9,42 C9,42.5522847 9.44771525,43 10,43 L12.00061,43 L12.00085,45 L10,45 C9.44771525,45 9,45.4477153 9,46 C9,46.5522847 9.44771525,47 10,47 L12.00116,47 L12.00146,49 L2,49 L2,47 L4,47 C4.55228475,47 5,46.5522847 5,46 C5,45.4477153 4.55228475,45 4,45 L2,45 L2,43 L4,43 C4.55228475,43 5,42.5522847 5,42 C5,41.4477153 4.55228475,41 4,41 L2,41 L2,39 L12,39 L12.00031,41 Z M13,37 L0,37 L0,16 L14,16 L14.00146,37 L13,37 Z"/>
            <path d="M27,1 C27.0005512,0.447943738 27.4479437,0.00055122983 28,-9.84412374e-16 C28.2696392,-0.000630860847 28.5275146,0.110367043 28.7124,0.30664 C28.8987984,0.488876347 29.0026858,0.739333079 29,1 L29,10 L27,10 L27,1 Z M23,12 L25.99854,11.99976 L26,12 L30,12 L30.00342,11.99927 L33,11.999 L33,14 L23,14 L23,12 Z M30.00146,56 L26,56 L26,51 L30,51 L30.00146,56 Z M33.00031,41 L31,41 C30.4477153,41 30,41.4477153 30,42 C30,42.5522847 30.4477153,43 31,43 L33.00061,43 L33.00085,45 L31,45 C30.4477153,45 30,45.4477153 30,46 C30,46.5522847 30.4477153,47 31,47 L33.00116,47 L33.00146,49 L23,49 L23,47 L25,47 C25.5522847,47 26,46.5522847 26,46 C26,45.4477153 25.5522847,45 25,45 L23,45 L23,43 L25,43 C25.5522847,43 26,42.5522847 26,42 C26,41.4477153 25.5522847,41 25,41 L23,41 L23,39 L33,39 L33.00031,41 Z M34,37 L21,37 L21,16 L35,16 L35.00146,37 L34,37 Z"/>
            <path d="M48,1 C48.0003696,0.447868398 48.4478684,0.000369556893 49,-9.12315047e-16 C49.2697636,-0.000542622266 49.527757,0.110429764 49.71289,0.30664 C49.8987693,0.489188048 50.0024127,0.739483075 50,1 L50,10 L48,10 L48,1 Z M44,12 L46.99707,11.99939 L47,12 L51,12 L51.00677,11.99866 L54,11.99805 L54,14 L44,14 L44,12 Z M51.002,56 L47,56 L47,51 L51,51 L51.002,56 Z M54.00042,41 L52,41 C51.4477153,41 51,41.4477153 51,42 C51,42.5522847 51.4477153,43 52,43 L54.00079,43 L54.00116,45 L52,45 C51.4477153,45 51,45.4477153 51,46 C51,46.5522847 51.4477153,47 52,47 L54.00159,47 L54.00195,49 L44,49 L44,47 L46,47 C46.5522847,47 47,46.5522847 47,46 C47,45.4477153 46.5522847,45 46,45 L44,45 L44,43 L46,43 C46.5522847,43 47,42.5522847 47,42 C47,41.4477153 46.5522847,41 46,41 L44,41 L44,39 L54,39 L54.00042,41 Z M55,37 L42,37 L42,16 L56,16 L56.002,37 L55,37 Z"/>
        </g>
    </g>
</svg>