<svg xmlns="http://www.w3.org/2000/svg" xmlns:xlink="http://www.w3.org/1999/xlink" viewBox="0 0 60 47" version="1.1" x="0px" y="0px"><title>Hipster - Outline - 029 - Record Player</title><desc>Created with Sketch.</desc><g stroke="none" stroke-width="1" fill="none" fill-rule="evenodd"><g fill-rule="nonzero" fill="#000000"><path d="M57,8.8817842e-16 L3,8.8817842e-16 C1.34389511,0.00180771165 0.00180771165,1.34389511 0,3 L0,45 C0.00180771165,46.6561049 1.34389511,47.9981923 3,48 L57,48 C58.6561049,47.9981923 59.9981923,46.6561049 60,45 L60,3 C59.9981923,1.34389511 58.6561049,0.00180771165 57,8.8817842e-16 Z M58,45 C57.9994488,45.5520563 57.5520563,45.9994488 57,46 L3,46 C2.44794374,45.9994488 2.00055123,45.5520563 2,45 L2,3 C2.00055123,2.44794374 2.44794374,2.00055123 3,2 L57,2 C57.5520563,2.00055123 57.9994488,2.44794374 58,3 L58,45 Z"/><path d="M28,5 C18.0588745,5 10,13.0588745 10,23 C10,32.9411255 18.0588745,41 28,41 C37.9411255,41 46,32.9411255 46,23 C45.9886368,13.0635851 37.9364149,5.0113632 28,5 Z M28,39 C19.163444,39 12,31.836556 12,23 C12,14.163444 19.163444,7 28,7 C36.836556,7 44,14.163444 44,23 C43.9898988,31.8323685 36.8323685,38.9898988 28,39 Z"/><path d="M28,9 C27.4477153,9 27,9.44771525 27,10 C27,10.5522847 27.4477153,11 28,11 C31.9481039,11.0023076 35.6427708,12.9453723 37.8819975,16.1970478 C40.1212243,19.4487233 40.6188164,23.5934145 39.21289,27.28271 C39.0853694,27.6165997 39.1456635,27.993158 39.3710602,28.2705389 C39.5964569,28.5479198 39.9527129,28.6839827 40.3056302,28.6274739 C40.6585475,28.5709651 40.9545094,28.3304697 41.08203,27.99658 C42.7219536,23.6923402 42.1412472,18.8569831 39.5288126,15.063434 C36.9163779,11.2698848 32.6060636,9.00292918 28,9 L28,9 Z"/><path d="M31.28027,13.55029 C30.7584576,13.3690716 30.1885385,13.6451776 30.00732,14.16699 C29.8261016,14.6888024 30.1022076,15.2587216 30.62402,15.43994 C33.8422231,16.559173 35.9993915,19.5927264 36,23 C36.0000281,23.2975464 35.9837269,23.5948701 35.95117,23.89063 C35.890911,24.4396383 36.2869626,24.9336096 36.83594,24.99415 C36.8725963,24.9980205 36.9094299,24.9999732 36.94629,25 C37.4558717,24.9994397 37.8835806,24.6158901 37.93945,24.10938 C37.9798581,23.7409683 38.0000716,23.3706211 38,23 C37.9989819,18.7411502 35.3027134,14.9494867 31.28027,13.55029 L31.28027,13.55029 Z"/><path d="M27.13965,35.26123 C23.2022907,34.958919 19.6655101,32.7393405 17.6810027,29.3252637 C15.6964952,25.911187 15.5181716,21.7394312 17.2041,18.16846 C17.3576476,17.8452272 17.3267601,17.4645816 17.1231072,17.1703337 C16.9194543,16.8760859 16.5740851,16.7130973 16.2174827,16.7429463 C15.8608802,16.7727952 15.5474125,16.9909309 15.39551,17.31494 C13.4312988,21.4811764 13.6406878,26.3467742 15.955559,30.3288621 C18.2704301,34.3109499 22.3949373,36.9006075 26.9873,37.25537 C27.01367,37.25737 27.03906,37.2583 27.06445,37.2583 C27.6015952,37.2576104 28.042246,36.8326945 28.062458,36.2959293 C28.08267,35.7591641 27.6752222,35.3023129 27.13965,35.26123 L27.13965,35.26123 Z"/><path d="M23.78516,32.33545 C24.1200536,32.493433 24.4633399,32.6329749 24.81348,32.75345 C25.1513653,32.8705868 25.5260836,32.7983752 25.7962416,32.5640631 C26.0663995,32.329751 26.1908703,31.9690082 26.122687,31.6179547 C26.0545038,31.2669013 25.8040462,30.9789789 25.46582,30.86283 C25.184577,30.7658209 24.9087845,30.6536772 24.63965,30.52689 C21.5587219,29.0713224 19.7366179,25.8252247 20.09865,22.43705 C20.1271851,22.1732764 20.0496449,21.9089834 19.8831238,21.7024368 C19.7166027,21.4958902 19.4747736,21.3640494 19.21095,21.33598 C18.9467844,21.3046905 18.6811534,21.3811551 18.4740527,21.5481036 C18.266952,21.7150521 18.1358509,21.9584019 18.11036,22.22319 C17.6579184,26.4579803 19.9348073,30.5153027 23.78516,32.33545 L23.78516,32.33545 Z"/><path d="M28,17 C24.6862915,17 22,19.6862915 22,23 C22,26.3137085 24.6862915,29 28,29 C31.3137085,29 34,26.3137085 34,23 C33.9963846,19.6877902 31.3122098,17.0036154 28,17 L28,17 Z M28,27 C25.790861,27 24,25.209139 24,23 C24,20.790861 25.790861,19 28,19 C30.209139,19 32,20.790861 32,23 C31.9976466,25.2081634 30.2081634,26.9976466 28,27 L28,27 Z"/><path d="M28.71,22.29 C28.4227214,22.0058807 27.9925679,21.9228173 27.62016,22.07955 C27.4976655,22.1279496 27.3855885,22.1993895 27.29,22.29 C27.2017324,22.3870958 27.1307098,22.4985641 27.08,22.61959 C26.9732302,22.8617606 26.9732302,23.1376694 27.08,23.37984 C27.1307013,23.5010179 27.2017219,23.6126488 27.29,23.70992 C27.3857108,23.8002228 27.4977294,23.87149 27.62008,23.91992 C27.7402682,23.9711899 27.869343,23.9983964 28,24 C28.2646822,23.9959011 28.5181359,23.8923778 28.71,23.71 C28.7982781,23.6127288 28.8692987,23.5010979 28.92,23.37992 C29.0267698,23.1377494 29.0267698,22.8618406 28.92,22.61967 C28.8692982,22.4986158 28.7982753,22.3871199 28.71,22.29 Z"/><path d="M7,38 C5.34314575,38 4,39.3431458 4,41 C4,42.6568542 5.34314575,44 7,44 C8.65685425,44 10,42.6568542 10,41 C9.99819229,39.3438951 8.65610489,38.0018077 7,38 Z M7,42 C6.44771525,42 6,41.5522847 6,41 C6,40.4477153 6.44771525,40 7,40 C7.55228475,40 8,40.4477153 8,41 C7.99944877,41.5520563 7.55205626,41.9994488 7,42 L7,42 Z"/><path d="M7,30 C5.34314575,30 4,31.3431458 4,33 C4,34.6568542 5.34314575,36 7,36 C8.65685425,36 10,34.6568542 10,33 C9.99819229,31.3438951 8.65610489,30.0018077 7,30 Z M7,34 C6.44771525,34 6,33.5522847 6,33 C6,32.4477153 6.44771525,32 7,32 C7.55228475,32 8,32.4477153 8,33 C7.99944877,33.5520563 7.55205626,33.9994488 7,34 L7,34 Z"/><path d="M7,10 C8.65685425,10 10,8.65685425 10,7 C10,5.34314575 8.65685425,4 7,4 C5.34314575,4 4,5.34314575 4,7 C4.00180771,8.65610489 5.34389511,9.99819229 7,10 L7,10 Z M7,6 C7.55228475,6 8,6.44771525 8,7 C8,7.55228475 7.55228475,8 7,8 C6.44771525,8 6,7.55228475 6,7 C6.00055123,6.44794374 6.44794374,6.00055123 7,6 L7,6 Z"/><path d="M12.29,42.29 C12.1070782,42.481512 12.0034639,42.7351884 12,43 C11.9968018,43.0671646 12.0033805,43.1344375 12.01953,43.19971 C12.030825,43.2623998 12.051224,43.3231016 12.08008,43.37989 C12.1016646,43.4437681 12.1318918,43.5043909 12.16992,43.56007 C12.2070572,43.6122938 12.2471493,43.6623521 12.29,43.71 C12.481762,43.8925356 12.7352802,43.9960852 13,44 C13.0671257,43.9981285 13.1340307,43.9914446 13.2002,43.98 C13.2626741,43.9687288 13.3231946,43.9485003 13.37989,43.91994 C13.4435409,43.8979638 13.5039718,43.8675853 13.55958,43.82961 C13.60938,43.79006 13.66017,43.75002 13.70997,43.70998 C13.8940907,43.5192531 13.9979173,43.2650902 14,43 C14.0023626,42.5937349 13.7586962,42.22642 13.3834815,42.070629 C13.0082668,41.9148381 12.5760905,42.0015401 12.29,42.29 Z"/><path d="M17.71,42.29 C17.30905,41.9198817 16.69103,41.9198817 16.29008,42.29 C16.2018124,42.3870958 16.1307898,42.4985641 16.08008,42.61959 C16.0287591,42.739934 16.0015518,42.8691791 16,43 C16.0016647,43.0669551 16.0081918,43.1337008 16.01953,43.19971 C16.030825,43.2623998 16.051224,43.3231016 16.08008,43.37989 C16.1016646,43.4437681 16.1318918,43.5043909 16.16992,43.56007 C16.20992,43.60987 16.25,43.65968 16.29004,43.70997 C16.4817873,43.8925072 16.7352899,43.9960671 17,44 C17.0671257,43.9981285 17.1340307,43.9914446 17.2002,43.98 C17.2626741,43.9687288 17.3231946,43.9485003 17.37989,43.91994 C17.4435409,43.8979638 17.5039718,43.8675853 17.55958,43.82961 C17.60938,43.79006 17.66017,43.75002 17.70997,43.70998 C17.74997,43.65969 17.79005,43.60988 17.83009,43.56008 C17.8677389,43.504179 17.89794,43.4436087 17.91993,43.3799 C17.9489187,43.3232542 17.9690109,43.262482 17.9795,43.19972 C17.9916382,43.1337984 17.9984934,43.0670129 18,43 C17.998443,42.8691926 17.9712358,42.7399616 17.91992,42.61963 C17.8692385,42.4985956 17.798243,42.3871139 17.71,42.29 L17.71,42.29 Z"/><path d="M13,6 C13.0670944,5.99765127 13.133967,5.99097069 13.2002,5.98 C13.2626741,5.96872883 13.3231946,5.94850033 13.37989,5.91994 C13.4435409,5.89796381 13.5039718,5.86758527 13.55958,5.82961 C13.6121698,5.79292198 13.6624083,5.75297366 13.71,5.71 C14.0560333,5.37066847 14.1135469,4.83389996 13.8472606,4.42895974 C13.5809744,4.02401952 13.065351,3.86414242 12.6166847,4.04740047 C12.1680184,4.23065852 11.9117715,4.70580665 12.0051312,5.18137882 C12.0984909,5.656951 12.5153507,5.99996136 13,6 L13,6 Z"/><path d="M44,41 L41,41 C41,40.4477153 40.5522847,40 40,40 C39.4477153,40 39,40.4477153 39,41 L38,41 C37.4477153,41 37,41.4477153 37,42 C37,42.5522847 37.4477153,43 38,43 L39,43 C39,43.5522847 39.4477153,44 40,44 C40.5522847,44 41,43.5522847 41,43 L44,43 C44.5522847,43 45,42.5522847 45,42 C45,41.4477153 44.5522847,41 44,41 Z"/><path d="M55,8.18427 L55,5 C55.000069,4.73476237 54.8947343,4.48036837 54.707183,4.29281703 C54.5196316,4.1052657 54.2652376,3.99993101 54,4 L50,4 C49.7347624,3.99993101 49.4803684,4.1052657 49.292817,4.29281703 C49.1052657,4.48036837 48.999931,4.73476237 49,5 L49,8.18427 C47.8023068,8.60193308 46.9999009,9.73154625 46.9999009,10.999975 C46.9999009,12.2684038 47.8023068,13.3980169 49,13.81568 L49,17 C48.999931,17.2652376 49.1052657,17.5196316 49.292817,17.707183 C49.4803684,17.8947343 49.7347624,18.000069 50,18 L51.29663,18 L53.78223,24.90967 C54.0465676,25.6378663 54.0715433,26.4314325 53.85352,27.17481 L52.54952,31.65662 L51.44723,31.10547 C51.2100043,30.9867304 50.9353105,30.9671498 50.6836411,31.0510403 C50.4319716,31.1349307 50.2239657,31.3154124 50.10543,31.55274 L46.10543,39.55274 C45.9867753,39.78998 45.9672397,40.0646428 46.0511222,40.3162883 C46.1350047,40.5679338 46.3154317,40.7759419 46.5527,40.89454 L50.5527,42.89454 C51.0084054,43.1241298 51.5639916,42.96821 51.8337,42.53504 L54.5527,43.89454 C55.0464085,44.139435 55.6451915,43.9387824 55.8916551,43.4458551 C56.1381188,42.9529277 55.9393711,42.3535098 55.44723,42.10548 L52.74179,40.75276 L55.8945,34.44728 C56.0131547,34.21004 56.0326903,33.9353772 55.9488078,33.6837317 C55.8649253,33.4320862 55.6844983,33.2240781 55.44723,33.10548 L54.36752,32.56562 L55.7734,27.73389 C56.1104094,26.5848273 56.0720957,25.3582198 55.66403,24.23243 L53.42273,18 L54,18 C54.2652376,18.000069 54.5196316,17.8947343 54.707183,17.707183 C54.8947343,17.5196316 55.000069,17.2652376 55,17 L55,13.81573 C56.1976481,13.3980074 57.0000018,12.2684007 57.0000018,10.999995 C57.0000018,9.73158929 56.1976481,8.60198255 55,8.18426 L55,8.18427 Z M50.55273,40.6582 L48.3418,39.55273 L51.44727,33.34179 L53.65821,34.44726 L50.55273,40.6582 Z M53,6 L53,8 L51,8 L51,6 L53,6 Z M51,14 L53,14 L53,16 L51,16 L51,14 Z M54,12 L50,12 C49.4477153,12 49,11.5522847 49,11 C49,10.4477153 49.4477153,10 50,10 L54,10 C54.5522847,10 55,10.4477153 55,11 C55,11.5522847 54.5522847,12 54,12 Z"/></g></g></svg>