<svg id="footer-logo" class="logo" data-name="Layer 1" xmlns="http://www.w3.org/2000/svg" viewBox="0 0 297 62.48">
    <defs></defs>
    <title>Analogue</title>
    <path class="logo-icon" d="M15.44,33.51A14.5,14.5,0,1,0,29,47,14.5,14.5,0,0,0,15.44,33.51Z" />
    <path class="logo-icon"
          d="M65.71,40.73,46.38,7.25A14.5,14.5,0,0,0,26.58,1.95h0a14.5,14.5,0,0,0-5.31,19.81L40.6,55.23a14.5,14.5,0,0,0,19.81,5.31h0A14.5,14.5,0,0,0,65.71,40.73Z" />
    <path class="logo-type"
          d="M107,40.94H90.24l-4,10.55H80.65l15-37.77h6l15,37.77h-5.65ZM92.1,36.1h13L98.55,19.16Z" />
    <path class="logo-type"
          d="M125.4,51.49h-5V25.87h4.9v3.68a8.78,8.78,0,0,1,7.88-4.42c6.13,0,9.16,4.42,9.16,10.12V51.49h-5V36.1c0-3.57-1.49-6.45-6-6.45-3.94,0-6,3.14-6,7Z" />
    <path class="logo-type"
          d="M155.06,36.84l6.93-1c1.55-.21,2-1,2-1.92,0-2.5-1.65-4.58-5.54-4.58a5.44,5.44,0,0,0-5.81,5.17l-4.79-1.12c.53-4.9,5-8.31,10.49-8.31,7.67,0,10.65,4.37,10.65,9.38V47.28a24,24,0,0,0,.32,4.21h-4.9a18.7,18.7,0,0,1-.27-3.46,9.34,9.34,0,0,1-8.26,4.26c-5.22,0-8.58-3.62-8.58-7.67C147.28,40,150.63,37.48,155.06,36.84Zm8.9,3.68V39.35l-7.83,1.17c-2.13.32-3.73,1.54-3.73,3.84a3.89,3.89,0,0,0,4.16,3.73C160.65,48.08,164,46.11,164,40.52Z" />
    <path class="logo-type" d="M175.19,51.49V12.92h5V51.49Z" />
    <path class="logo-type"
          d="M211.35,38.65c0,7.83-5.43,13.64-13.1,13.64s-13.1-5.81-13.1-13.64,5.43-13.58,13.1-13.58S211.35,30.88,211.35,38.65Zm-5.11,0c0-5.91-3.73-9.11-8-9.11s-8,3.2-8,9.11,3.73,9.16,8,9.16S206.23,44.62,206.23,38.65Z" />
    <path class="logo-type"
          d="M219.6,51.76a6.81,6.81,0,0,0,7,6.29c5.38,0,7.83-2.77,7.83-8.31V46.06c-1.23,2.34-4,4.21-7.83,4.21-6.82,0-11.77-5.17-11.77-12.41,0-6.93,4.74-12.47,11.77-12.47,3.94,0,6.61,1.49,7.88,4V25.87h5V49.57c0,6.5-3.2,12.84-12.84,12.84-6.39,0-11.19-4-11.83-9.54Zm15-13.9c0-5-3-8.2-7.3-8.2s-7.4,3.25-7.4,8.2,2.88,8.2,7.4,8.2C231.64,46.06,234.63,42.81,234.63,37.85Z" />
    <path class="logo-type"
          d="M255.23,52.29c-6,0-9.59-4.47-9.59-10.28V25.87h5v15.4c0,3.52,1.6,6.61,5.81,6.61,4,0,6.07-2.66,6.07-6.55V25.87h5V46.75a43.22,43.22,0,0,0,.27,4.74H263a22.62,22.62,0,0,1-.21-3.09C261.4,51.06,258.21,52.29,255.23,52.29Z" />
    <path class="logo-type"
          d="M296.84,44.19a11.61,11.61,0,0,1-11.51,8.1c-6.87,0-12.89-5-12.89-13.69,0-8,5.81-13.53,12.25-13.53,7.88,0,12.31,5.43,12.31,13.42a11.23,11.23,0,0,1-.11,1.6H277.61a7.61,7.61,0,0,0,7.72,7.78,7,7,0,0,0,7.19-5.17ZM291.78,36c-.11-3.68-2.5-6.55-7-6.55a6.89,6.89,0,0,0-7,6.55Z" />
</svg>