<svg xmlns="http://www.w3.org/2000/svg" xmlns:xlink="http://www.w3.org/1999/xlink" version="1.1" x="0px" y="0px" viewBox="0 0 512 512" enable-background="new 0 0 512 512" xml:space="preserve">
    <g>
        <path d="M467.7,119.9H133.7l138-92c6.5-4.3,8.2-13.1,3.9-19.6c-4.3-6.5-13.1-8.2-19.6-3.9L94.8,112L72,42.5   c-2.4-7.4-10.4-11.4-17.8-9c-7.4,2.4-11.4,10.4-9,17.8l22.5,68.6H44.3C21,119.9,2,138.9,2,162.2v291.5c0,23.3,19,42.3,42.3,42.3   h23.6C68,503.8,74.3,510,82,510h46c7.7,0,14-6.2,14.1-13.9h227.8c0.1,7.7,6.4,13.9,14.1,13.9h46c7.7,0,14-6.2,14.1-13.9h23.6   c23.3,0,42.3-19,42.3-42.3V162.2C510,138.9,491,119.9,467.7,119.9z M481.8,453.7c0,7.8-6.3,14.1-14.1,14.1H44.3   c-7.8,0-14.1-6.3-14.1-14.1V162.2c0-7.8,6.3-14.1,14.1-14.1h423.3c7.8,0,14.1,6.3,14.1,14.1V453.7z"/><path d="M343.8,176.3H72.6c-7.8,0-14.1,6.3-14.1,14.1v235.1c0,7.8,6.3,14.1,14.1,14.1h271.2c7.8,0,14.1-6.3,14.1-14.1V190.5   C357.9,182.7,351.6,176.3,343.8,176.3z M329.7,411.4h-243v-87.9h20.5c7.8,0,14.1-6.3,14.1-14.1s-6.3-14.1-14.1-14.1H86.7V267h48.7   c7.8,0,14.1-6.3,14.1-14.1s-6.3-14.1-14.1-14.1H86.7v-34.3h243V411.4z"/><path d="M418.9,204.6h5.7c7.8,0,14.1-6.3,14.1-14.1c0-7.8-6.3-14.1-14.1-14.1h-5.7c-7.8,0-14.1,6.3-14.1,14.1   C404.8,198.3,411.2,204.6,418.9,204.6z"/><path d="M418.9,261.7h5.7c7.8,0,14.1-6.3,14.1-14.1s-6.3-14.1-14.1-14.1h-5.7c-7.8,0-14.1,6.3-14.1,14.1S411.2,261.7,418.9,261.7z"/><path d="M418.9,318.9h5.7c7.8,0,14.1-6.3,14.1-14.1s-6.3-14.1-14.1-14.1h-5.7c-7.8,0-14.1,6.3-14.1,14.1S411.2,318.9,418.9,318.9z"/><path d="M421.8,354.3c-23.5,0-42.7,19.1-42.7,42.7c0,23.5,19.1,42.7,42.7,42.7s42.7-19.1,42.7-42.7   C464.5,373.4,445.3,354.3,421.8,354.3z M421.8,411.4c-8,0-14.5-6.5-14.5-14.5c0-8,6.5-14.5,14.5-14.5s14.5,6.5,14.5,14.5   C436.2,404.9,429.7,411.4,421.8,411.4z"/>
    </g>
</svg>